<svg xmlns="http://www.w3.org/2000/svg" width="44" height="44" viewBox="0 0 44 44" fill="none">
  <path opacity="0.5" d="M5.81463 13.1479C7.36158 11.6009 9.58757 11.1681 13.295 11.047L16.0456 11.0034C16.7632 11 17.5246 11 18.3334 11H25.6667C26.4755 11 27.237 11 27.9546 11.0034L30.7051 11.047C34.4126 11.1681 36.6386 11.6009 38.1855 13.1479C40.3334 15.2958 40.3334 18.7527 40.3334 25.6667C40.3334 32.5806 40.3334 36.0376 38.1855 38.1855C36.0376 40.3333 32.5807 40.3333 25.6668 40.3333H25.6667H18.3334H18.3334C11.4195 40.3333 7.96251 40.3333 5.81463 38.1855C3.66675 36.0376 3.66675 32.5806 3.66675 25.6667C3.66675 18.7527 3.66675 15.2958 5.81463 13.1479Z" fill="white"/>
  <path d="M23.3749 18.3335C23.3749 17.5741 22.7593 16.9585 21.9999 16.9585C21.2405 16.9585 20.6249 17.5741 20.6249 18.3335V18.3523C18.6288 18.8551 16.9583 20.429 16.9583 22.6113C16.9583 25.2823 19.4609 27.0418 21.9999 27.0418C23.511 27.0418 24.2916 28.0183 24.2916 28.7224C24.2916 29.4264 23.511 30.4029 21.9999 30.4029C20.4889 30.4029 19.7083 29.4264 19.7083 28.7224C19.7083 27.963 19.0926 27.3474 18.3333 27.3474C17.5739 27.3474 16.9583 27.963 16.9583 28.7224C16.9583 30.9047 18.6288 32.4785 20.6249 32.9814V33.0002C20.6249 33.7596 21.2405 34.3752 21.9999 34.3752C22.7593 34.3752 23.3749 33.7596 23.3749 33.0002V32.9814C25.371 32.4785 27.0416 30.9047 27.0416 28.7224C27.0416 26.0514 24.539 24.2918 21.9999 24.2918C20.4889 24.2918 19.7083 23.3153 19.7083 22.6113C19.7083 21.9072 20.4889 20.9307 21.9999 20.9307C23.511 20.9307 24.2916 21.9072 24.2916 22.6113C24.2916 23.3707 24.9072 23.9863 25.6666 23.9863C26.426 23.9863 27.0416 23.3707 27.0416 22.6113C27.0416 20.429 25.371 18.8551 23.3749 18.3523V18.3335Z" fill="white"/>
  <path d="M22.0955 2.29151H21.9049C20.2577 2.29145 18.8841 2.29141 17.7937 2.43801C16.6427 2.59276 15.6036 2.93315 14.7686 3.76818C13.9335 4.60321 13.5931 5.64234 13.4384 6.7933C13.3333 7.57497 13.3036 9.44421 13.2952 11.0469L16.0457 11.0033C16.054 9.4511 16.0804 7.78064 16.1639 7.15973C16.2776 6.31372 16.4742 5.95164 16.7131 5.71272C16.952 5.47381 17.3141 5.27724 18.1601 5.16349C19.0457 5.04443 20.2329 5.04151 22.0002 5.04151C23.7676 5.04151 24.9548 5.04443 25.8403 5.16349C26.6863 5.27724 27.0484 5.47381 27.2873 5.71272C27.5262 5.95164 27.7228 6.31372 27.8366 7.15973C27.92 7.78064 27.9464 9.4511 27.9547 11.0033L30.7053 11.0469C30.6969 9.44421 30.6671 7.57497 30.562 6.7933C30.4073 5.64234 30.0669 4.60321 29.2319 3.76818C28.3969 2.93315 27.3577 2.59276 26.2068 2.43801C25.1163 2.29141 23.7427 2.29145 22.0955 2.29151Z" fill="white"/>
</svg>