<svg xmlns="http://www.w3.org/2000/svg" width="18" height="18" viewBox="0 0 18 18" fill="none">
  <path d="M5.20521 1.5C5.51711 1.5 5.76995 1.74316 5.76995 2.0431V3.13865C6.27088 3.12931 6.83237 3.12931 7.46415 3.12931H10.4761C11.1078 3.12931 11.6693 3.12931 12.1703 3.13865V2.0431C12.1703 1.74316 12.4231 1.5 12.735 1.5C13.0469 1.5 13.2997 1.74316 13.2997 2.0431V3.1867C14.3835 3.27016 15.095 3.475 15.6177 3.97769C16.1404 4.48039 16.3534 5.16462 16.4402 6.2069L16.5 6.75H2.19342H1.5V6.2069C1.58679 5.16462 1.79977 4.48039 2.32249 3.97769C2.84521 3.475 3.55669 3.27016 4.64048 3.1867V2.0431C4.64048 1.74316 4.89332 1.5 5.20521 1.5Z" fill="white"/>
  <path opacity="0.5" d="M16.4999 10.5001V9.00006C16.4999 8.37079 16.4974 7.24895 16.4878 6.75H1.50712C1.49744 7.24895 1.49989 8.37079 1.49989 9.00006V10.5001C1.49989 13.3285 1.49989 14.7427 2.37857 15.6214C3.25725 16.5001 4.67146 16.5001 7.49989 16.5001H10.4999C13.3283 16.5001 14.7425 16.5001 15.6212 15.6214C16.4999 14.7427 16.4999 13.3285 16.4999 10.5001Z" fill="white"/>
  <path d="M13.5 12.75C13.5 13.1642 13.1642 13.5 12.75 13.5C12.3358 13.5 12 13.1642 12 12.75C12 12.3358 12.3358 12 12.75 12C13.1642 12 13.5 12.3358 13.5 12.75Z" fill="white"/>
  <path d="M13.5 9.75C13.5 10.1642 13.1642 10.5 12.75 10.5C12.3358 10.5 12 10.1642 12 9.75C12 9.33579 12.3358 9 12.75 9C13.1642 9 13.5 9.33579 13.5 9.75Z" fill="white"/>
  <path d="M9.75 12.75C9.75 13.1642 9.41421 13.5 9 13.5C8.58579 13.5 8.25 13.1642 8.25 12.75C8.25 12.3358 8.58579 12 9 12C9.41421 12 9.75 12.3358 9.75 12.75Z" fill="white"/>
  <path d="M9.75 9.75C9.75 10.1642 9.41421 10.5 9 10.5C8.58579 10.5 8.25 10.1642 8.25 9.75C8.25 9.33579 8.58579 9 9 9C9.41421 9 9.75 9.33579 9.75 9.75Z" fill="white"/>
  <path d="M6 12.75C6 13.1642 5.66421 13.5 5.25 13.5C4.83579 13.5 4.5 13.1642 4.5 12.75C4.5 12.3358 4.83579 12 5.25 12C5.66421 12 6 12.3358 6 12.75Z" fill="white"/>
  <path d="M6 9.75C6 10.1642 5.66421 10.5 5.25 10.5C4.83579 10.5 4.5 10.1642 4.5 9.75C4.5 9.33579 4.83579 9 5.25 9C5.66421 9 6 9.33579 6 9.75Z" fill="white"/>
</svg>