<svg xmlns="http://www.w3.org/2000/svg" width="24" height="25" viewBox="0 0 24 25" fill="none">
  <path opacity="0.5" d="M9.77778 21.5H14.2222C17.3433 21.5 18.9038 21.5 20.0248 20.7646C20.51 20.4462 20.9267 20.0371 21.251 19.5607C22 18.4601 22 16.9279 22 13.8636C22 10.7994 22 9.26721 21.251 8.1666C20.9267 7.69014 20.51 7.28104 20.0248 6.96268C19.3044 6.49013 18.4027 6.32123 17.022 6.26086C16.3631 6.26086 15.7959 5.77068 15.6667 5.13636C15.4728 4.18489 14.6219 3.5 13.6337 3.5H10.3663C9.37805 3.5 8.52715 4.18489 8.33333 5.13636C8.20412 5.77068 7.63685 6.26086 6.978 6.26086C5.59733 6.32123 4.69555 6.49013 3.97524 6.96268C3.48995 7.28104 3.07328 7.69014 2.74902 8.1666C2 9.26721 2 10.7994 2 13.8636C2 16.9279 2 18.4601 2.74902 19.5607C3.07328 20.0371 3.48995 20.4462 3.97524 20.7646C5.09624 21.5 6.65675 21.5 9.77778 21.5Z" fill="white"/>
  <path d="M17.5557 9.77246C17.0955 9.77246 16.7224 10.1388 16.7224 10.5906C16.7224 11.0425 17.0955 11.4088 17.5557 11.4088H18.6668C19.1271 11.4088 19.5002 11.0425 19.5002 10.5906C19.5002 10.1388 19.1271 9.77246 18.6668 9.77246H17.5557Z" fill="white"/>
  <path fill-rule="evenodd" clip-rule="evenodd" d="M12.0002 9.77246C9.69898 9.77246 7.8335 11.604 7.8335 13.8634C7.8335 16.1227 9.69898 17.9543 12.0002 17.9543C14.3013 17.9543 16.1668 16.1227 16.1668 13.8634C16.1668 11.604 14.3013 9.77246 12.0002 9.77246ZM12.0002 11.4088C10.6195 11.4088 9.50016 12.5078 9.50016 13.8634C9.50016 15.219 10.6195 16.3179 12.0002 16.3179C13.3809 16.3179 14.5002 15.219 14.5002 13.8634C14.5002 12.5078 13.3809 11.4088 12.0002 11.4088Z" fill="white"/>
</svg>