<svg width="30" height="30" viewBox="0 0 30 30" fill="none" xmlns="http://www.w3.org/2000/svg">
<path fill-rule="evenodd" clip-rule="evenodd" d="M3.64829 8.25593C3.37584 7.62242 2.64165 7.32917 2.0076 7.6009C1.37307 7.87285 1.07958 8.60875 1.35152 9.24328L1.35206 9.24453L1.3534 9.24764L1.35714 9.25625L1.36887 9.28285C1.37859 9.3047 1.3921 9.33468 1.40946 9.37227C1.44417 9.44742 1.4943 9.55305 1.56019 9.68483C1.69187 9.94819 1.88706 10.3171 2.14854 10.7564C2.65971 11.6151 3.43168 12.7555 4.48792 13.9052L3.49112 14.902C3.00296 15.3902 3.00296 16.1816 3.49112 16.6698C3.97928 17.1579 4.77073 17.1579 5.25889 16.6698L6.30939 15.6193C7.01563 16.1896 7.80513 16.7269 8.68028 17.19L7.70227 18.6931C7.32576 19.2717 7.48962 20.0461 8.06827 20.4226C8.64692 20.7991 9.42122 20.6352 9.79773 20.0566L11.0292 18.1639C11.8752 18.4233 12.7817 18.6081 13.75 18.6946V20.6248C13.75 21.3152 14.3096 21.8748 15 21.8748V16.2498C11.5654 16.2498 8.97633 14.7516 7.12048 13.0138C7.11035 13.004 7.10009 12.9943 7.08972 12.9849C6.84161 12.7512 6.60671 12.5133 6.38475 12.2743C5.44305 11.2601 4.75177 10.2421 4.29678 9.47767C4.06998 9.09665 3.90384 8.78195 3.79626 8.56679C3.74252 8.45931 3.70354 8.37696 3.67904 8.32394C3.6668 8.29743 3.65819 8.27828 3.65318 8.26702L3.64829 8.25593ZM1.35152 9.24328L2.5 8.74984C1.35107 9.24223 1.35152 9.24328 1.35152 9.24328Z" fill="white"/>
<path opacity="0.5" d="M19.0262 15.498C17.848 15.9617 16.5112 16.2502 15 16.2502V21.8752C15.6904 21.8752 16.25 21.3156 16.25 20.6252V18.6948C17.215 18.6084 18.1217 18.424 18.9704 18.1638L20.2023 20.057C20.5788 20.6356 21.3531 20.7995 21.9317 20.423C22.5104 20.0465 22.6742 19.2722 22.2977 18.6935L21.3198 17.1905C22.1962 16.7269 22.9856 16.1896 23.6909 15.62L24.7411 16.6702C25.2293 17.1583 26.0207 17.1583 26.5089 16.6702C26.997 16.182 26.997 15.3906 26.5089 14.9024L25.5121 13.9056C26.4401 12.8955 27.1476 11.8938 27.6509 11.0861C27.98 10.5578 28.2249 10.1076 28.3895 9.78491C28.4718 9.62342 28.5343 9.49345 28.5773 9.40113C28.5989 9.35496 28.6155 9.31816 28.6275 9.2915L28.6418 9.2592L28.6462 9.24891L28.6489 9.24264C28.9209 8.6081 28.6269 7.87325 27.9924 7.60131C27.358 7.32944 26.6232 7.62365 26.3511 8.25784L26.3449 8.27183C26.3383 8.28658 26.3272 8.31113 26.3115 8.34475C26.2801 8.41202 26.2305 8.51543 26.1624 8.6491C26.0259 8.91671 25.8158 9.30388 25.5291 9.76398C24.9534 10.6878 24.0816 11.8857 22.8945 12.9999C21.8432 13.9866 20.5587 14.8948 19.0262 15.498Z" fill="white"/>
</svg>
