<svg xmlns="http://www.w3.org/2000/svg" width="34" height="34" viewBox="0 0 34 34" fill="none">
  <path opacity="0.5" d="M2.83337 17.0002C2.83337 10.3219 2.83337 6.98282 4.90803 4.90816C6.98269 2.8335 10.3218 2.8335 17 2.8335C23.6783 2.8335 27.0174 2.8335 29.092 4.90816C31.1667 6.98282 31.1667 10.3219 31.1667 17.0002C31.1667 23.6784 31.1667 27.0175 29.092 29.0922C27.0174 31.1668 23.6783 31.1668 17 31.1668C10.3218 31.1668 6.98269 31.1668 4.90803 29.0922C2.83337 27.0175 2.83337 23.6784 2.83337 17.0002Z" fill="white"/>
  <path d="M10.9791 11.3335C10.9791 10.7467 10.5034 10.271 9.91663 10.271C9.32982 10.271 8.85413 10.7467 8.85413 11.3335V22.6668C8.85413 23.2536 9.32982 23.7293 9.91663 23.7293C10.5034 23.7293 10.9791 23.2536 10.9791 22.6668L10.9791 11.3335Z" fill="white"/>
  <path d="M24.0833 18.0627C24.6701 18.0627 25.1458 17.587 25.1458 17.0002C25.1458 16.4134 24.6701 15.9377 24.0833 15.9377L16.7317 15.9377L19.1679 13.5015C19.5829 13.0865 19.5829 12.4138 19.1679 11.9989C18.753 11.5839 18.0803 11.5839 17.6653 11.9989L13.4153 16.2489C13.2161 16.4481 13.1041 16.7184 13.1041 17.0002C13.1041 17.282 13.2161 17.5522 13.4153 17.7515L17.6653 22.0015C18.0803 22.4164 18.753 22.4164 19.1679 22.0015C19.5829 21.5865 19.5829 20.9138 19.1679 20.4989L16.7317 18.0627H24.0833Z" fill="white"/>
</svg>