<svg xmlns="http://www.w3.org/2000/svg" width="18" height="18" viewBox="0 0 18 18" fill="none">
  <path opacity="0.5" fill-rule="evenodd" clip-rule="evenodd" d="M2.25 10.6875C2.56066 10.6875 2.8125 10.9393 2.8125 11.25C2.8125 12.3266 2.8137 13.0774 2.88986 13.6439C2.96385 14.1942 3.09919 14.4857 3.30676 14.6932C3.51433 14.9008 3.80576 15.0361 4.35609 15.1101C4.9226 15.1863 5.67344 15.1875 6.75 15.1875H11.25C12.3266 15.1875 13.0774 15.1863 13.6439 15.1101C14.1942 15.0361 14.4857 14.9008 14.6932 14.6932C14.9008 14.4857 15.0361 14.1942 15.1101 13.6439C15.1863 13.0774 15.1875 12.3266 15.1875 11.25C15.1875 10.9393 15.4393 10.6875 15.75 10.6875C16.0607 10.6875 16.3125 10.9393 16.3125 11.25V11.2912C16.3125 12.3168 16.3125 13.1436 16.2251 13.7938C16.1343 14.4689 15.9402 15.0373 15.4887 15.4887C15.0373 15.9402 14.4689 16.1343 13.7938 16.2251C13.1436 16.3125 12.3168 16.3125 11.2912 16.3125H6.70885C5.68316 16.3125 4.85641 16.3125 4.20619 16.2251C3.53111 16.1343 2.9627 15.9402 2.51126 15.4887C2.05983 15.0373 1.86566 14.4689 1.77489 13.7938C1.68747 13.1436 1.68748 12.3168 1.6875 11.2912C1.6875 11.2775 1.6875 11.2638 1.6875 11.25C1.6875 10.9393 1.93934 10.6875 2.25 10.6875Z" fill="white"/>
  <path fill-rule="evenodd" clip-rule="evenodd" d="M9 12.5625C9.15793 12.5625 9.30858 12.4961 9.41515 12.3796L12.4151 9.09831C12.6248 8.86903 12.6088 8.51323 12.3796 8.30361C12.1503 8.09398 11.7945 8.10992 11.5849 8.33919L9.5625 10.5511V2.25C9.5625 1.93934 9.31066 1.6875 9 1.6875C8.68934 1.6875 8.4375 1.93934 8.4375 2.25V10.5511L6.41514 8.33919C6.20552 8.10992 5.84972 8.09398 5.62045 8.30361C5.39117 8.51323 5.37524 8.86903 5.58486 9.09831L8.58486 12.3796C8.69143 12.4961 8.84208 12.5625 9 12.5625Z" fill="white"/>
</svg>