<svg xmlns="http://www.w3.org/2000/svg" width="16" height="16" viewBox="0 0 16 16" fill="none">
  <path d="M9.79036 7.6752L4.25586 6.7002V13.9047C4.25579 13.983 4.27118 14.0605 4.30115 14.1329C4.33112 14.2052 4.37507 14.271 4.43048 14.3263C4.4859 14.3816 4.55169 14.4254 4.62409 14.4553C4.69648 14.4851 4.77405 14.5004 4.85236 14.5002H14.4024C14.4807 14.5005 14.5584 14.4854 14.6309 14.4556C14.7034 14.4258 14.7694 14.382 14.8249 14.3266C14.8804 14.2713 14.9244 14.2055 14.9545 14.1331C14.9845 14.0607 14.9999 13.9831 14.9999 13.9047V11.2502L9.79036 7.6752Z" fill="#185C37"/>
  <path d="M9.79036 1.5H4.85236C4.77405 1.4998 4.69648 1.51507 4.62409 1.54491C4.55169 1.57475 4.4859 1.6186 4.43048 1.67392C4.37507 1.72924 4.33112 1.79496 4.30115 1.8673C4.27118 1.93965 4.25579 2.0172 4.25586 2.0955V4.75L9.79036 8L12.7209 8.975L14.9999 8V4.75L9.79036 1.5Z" fill="#21A366"/>
  <path d="M4.25586 4.75H9.79036V8H4.25586V4.75Z" fill="#107C41"/>
  <path opacity="0.1" d="M8.21686 4.1001H4.25586V12.2251H8.21686C8.37469 12.2243 8.52586 12.1614 8.63761 12.0499C8.74935 11.9384 8.81268 11.7874 8.81386 11.6296V4.6956C8.81268 4.53777 8.74935 4.38676 8.63761 4.27529C8.52586 4.16383 8.37469 4.10088 8.21686 4.1001Z" fill="black"/>
  <path opacity="0.2" d="M7.89136 4.4248H4.25586V12.5498H7.89136C8.04919 12.549 8.20036 12.4861 8.31211 12.3746C8.42385 12.2631 8.48718 12.1121 8.48836 11.9543V5.0203C8.48718 4.86247 8.42385 4.71147 8.31211 4.6C8.20036 4.48853 8.04919 4.42559 7.89136 4.4248Z" fill="black"/>
  <path opacity="0.2" d="M7.89136 4.4248H4.25586V11.8998H7.89136C8.04919 11.899 8.20036 11.8361 8.31211 11.7246C8.42385 11.6131 8.48718 11.4621 8.48836 11.3043V5.0203C8.48718 4.86247 8.42385 4.71147 8.31211 4.6C8.20036 4.48853 8.04919 4.42559 7.89136 4.4248Z" fill="black"/>
  <path opacity="0.2" d="M7.56586 4.4248H4.25586V11.8998H7.56586C7.72369 11.899 7.87486 11.8361 7.98661 11.7246C8.09835 11.6131 8.16168 11.4621 8.16286 11.3043V5.0203C8.16168 4.86247 8.09835 4.71147 7.98661 4.6C7.87486 4.48853 7.72369 4.42559 7.56586 4.4248Z" fill="black"/>
  <path d="M1.597 4.42481H7.566C7.72411 4.42468 7.87581 4.48732 7.98776 4.59899C8.0997 4.71065 8.16273 4.86219 8.163 5.02031V10.9793C8.16273 11.1374 8.0997 11.289 7.98776 11.4006C7.87581 11.5123 7.72411 11.5749 7.566 11.5748H1.597C1.51865 11.5751 1.44103 11.5599 1.36857 11.53C1.29612 11.5002 1.23027 11.4564 1.1748 11.4011C1.11933 11.3457 1.07534 11.28 1.04534 11.2076C1.01534 11.1352 0.999934 11.0577 1 10.9793V5.02031C0.999934 4.94196 1.01534 4.86437 1.04534 4.79199C1.07534 4.71962 1.11933 4.65388 1.1748 4.59855C1.23027 4.54322 1.29612 4.49939 1.36857 4.46957C1.44103 4.43976 1.51865 4.42454 1.597 4.42481Z" fill="url(#paint0_linear_4704_10921)"/>
  <path d="M2.8501 9.93648L4.1056 7.99448L2.9556 6.06348H3.8791L4.5066 7.29998C4.5646 7.41698 4.6066 7.50398 4.6256 7.56198H4.6341C4.6751 7.46831 4.71843 7.37731 4.7641 7.28898L5.4351 6.06548H6.2851L5.1056 7.98548L6.3151 9.93798H5.4106L4.6856 8.58248C4.65203 8.52415 4.62343 8.4631 4.6001 8.39998H4.5881C4.56691 8.4615 4.53872 8.52038 4.5041 8.57548L3.7576 9.93648H2.8501Z" fill="white"/>
  <path d="M14.403 1.5H9.79053V4.75H15V2.0955C15.0001 2.01716 14.9847 1.93957 14.9547 1.86719C14.9247 1.79481 14.8807 1.72907 14.8252 1.67374C14.7698 1.61841 14.7039 1.57458 14.6315 1.54477C14.559 1.51495 14.4814 1.49974 14.403 1.5Z" fill="#33C481"/>
  <path d="M9.79053 8H15V11.25H9.79053V8Z" fill="#107C41"/>
  <defs>
    <linearGradient id="paint0_linear_4704_10921" x1="2.247" y1="3.95681" x2="6.916" y2="12.0428" gradientUnits="userSpaceOnUse">
      <stop stop-color="#18884F"/>
      <stop offset="0.5" stop-color="#117E43"/>
      <stop offset="1" stop-color="#0B6631"/>
    </linearGradient>
  </defs>
</svg>