<svg width="42" height="42" viewBox="0 0 42 42" fill="none" xmlns="http://www.w3.org/2000/svg">
<path opacity="0.5" d="M24.85 5.25H17.15C9.89037 5.25 6.26056 5.25 4.00528 7.55653C1.75 9.86307 1.75 13.5754 1.75 21C1.75 28.4246 1.75 32.1369 4.00528 34.4435C6.26056 36.75 9.89037 36.75 17.15 36.75H24.85C32.1096 36.75 35.7394 36.75 37.9947 34.4435C40.25 32.1369 40.25 28.4246 40.25 21C40.25 13.5754 40.25 9.86307 37.9947 7.55653C35.7394 5.25 32.1096 5.25 24.85 5.25Z" fill="white"/>
<path d="M33.4746 14.0597C34.0872 13.5493 34.17 12.6389 33.6595 12.0264C33.149 11.4138 32.2387 11.331 31.6261 11.8415L27.4702 15.3047C25.6743 16.8014 24.4274 17.8371 23.3747 18.5141C22.3557 19.1695 21.6646 19.3895 21.0004 19.3895C20.3361 19.3895 19.6451 19.1695 18.6261 18.5141C17.5734 17.8371 16.3265 16.8014 14.5305 15.3047L10.3746 11.8415C9.76209 11.331 8.85172 11.4138 8.34126 12.0264C7.8308 12.6389 7.91356 13.5493 8.52611 14.0597L12.7544 17.5833C14.4606 19.0052 15.8435 20.1577 17.0641 20.9427C18.3356 21.7604 19.5738 22.277 21.0004 22.277C22.427 22.277 23.6652 21.7604 24.9367 20.9427C26.1572 20.1577 27.5402 19.0052 29.2464 17.5833L33.4746 14.0597Z" fill="white"/>
</svg>
