<svg xmlns="http://www.w3.org/2000/svg" width="150" height="58" viewBox="0 0 150 58" fill="none">
  <path d="M75.9671 24.8983C74.3386 23.493 72.4896 22.8631 70.3804 22.8631H70.3434C66.2003 22.8631 63.7582 25.9707 63.7582 29.855V29.892C63.8322 33.8503 66.2372 36.921 70.3434 36.921H70.3804C72.8224 36.921 74.4866 36.1443 75.9671 34.8857L79.6295 39.8807C77.3724 41.9899 74.2647 43.1363 70.3804 43.1363H70.3434C62.0189 43.1363 57.0991 37.5866 57.0991 29.8908V29.8538C57.0991 22.1949 62.0201 16.6465 70.3434 16.6465H70.3804C73.8949 16.6465 77.2244 17.645 79.6295 19.9021L75.9671 24.897V24.8983Z" fill="white"/>
  <path d="M107.044 42.6941H100.015L98.3123 37.884H88.3236L86.6212 42.6941H79.5923L89.7289 17.0918H96.9058L107.042 42.6941H107.044ZM93.3186 23.9358L90.4328 32.0385H96.2044L93.3186 23.9358Z" fill="white"/>
  <path d="M126.802 17.0918V23.4921H119.551V42.6928H112.892V23.4921H105.641V17.0918H126.803H126.802Z" fill="white"/>
  <path d="M145.818 24.455C143.857 22.9757 142.155 22.5677 139.861 22.5677H139.824C137.456 22.5677 135.903 23.1594 135.903 24.344C135.903 25.1576 136.384 25.6014 138.937 26.1204L143.451 27.0449C148.631 28.1174 150.036 31.744 149.999 35.3324C149.999 40.3644 145.522 43.1392 139.639 43.1392H139.602C134.127 43.1392 130.168 41.3999 127.985 37.8114L133.461 33.8162C135.274 36.591 137.345 37.2567 139.75 37.2567H139.787C142.044 37.2567 143.265 36.4801 143.265 35.1475C143.265 33.815 142.266 33.2972 140.601 32.8904L135.162 31.5961C130.871 30.5606 129.169 27.8597 129.169 24.6041C129.169 19.2393 133.72 16.6494 140.083 16.6494H140.12C143.931 16.6494 147.186 17.537 149.665 19.4982L145.818 24.4562V24.455Z" fill="white"/>
  <path d="M56.9144 20.5262C57.6084 20.234 58.0522 19.5301 58.0522 18.7782V2.02434C58.0522 1.0468 57.2583 0.25293 56.2796 0.25293H50.9259C49.9471 0.25293 49.1545 1.0468 49.1545 2.02434V7.25228C49.1656 7.33488 49.1717 7.41993 49.1717 7.50622V18.4737C49.1717 19.4525 48.3779 20.2451 47.4003 20.2451H37.7999C36.8211 20.2451 36.0273 21.039 36.0273 22.0178V49.9412C36.0273 50.92 35.2346 51.7139 34.2559 51.7139H24.1008C23.5781 51.7139 23.0727 51.5598 22.6166 51.3058C22.5796 51.2849 22.5451 51.2676 22.5106 51.2528C22.3133 51.1653 22.0914 51.3021 22.0914 51.5179L22.0951 55.9741C22.0951 56.9529 22.8878 57.7468 23.8665 57.7468H56.2796C57.2583 57.7468 58.0522 56.9529 58.0522 55.9741V41.7671C58.0522 41.0053 57.6084 40.3051 56.9144 40.0129C53.1115 38.4129 50.4414 34.6531 50.4414 30.2683C50.4414 25.8835 53.1115 22.1238 56.9144 20.5262ZM44.692 51.7484C44.692 51.9123 44.5601 52.0442 44.3962 52.0442H39.5985C39.4345 52.0442 39.3026 51.9123 39.3026 51.7484V50.544C39.3026 50.3813 39.4345 50.2482 39.5985 50.2482H44.3962C44.5601 50.2482 44.692 50.3813 44.692 50.544V51.7484ZM52.7799 50.2482C52.9438 50.2482 53.0757 50.3813 53.0757 50.544V51.7484C53.0757 51.9123 52.9438 52.0442 52.7799 52.0442H47.9822C47.8182 52.0442 47.6863 51.9123 47.6863 51.7484V50.544C47.6863 50.3813 47.8182 50.2482 47.9822 50.2482H52.7799Z" fill="#BA8AFF"/>
  <path d="M46.6053 0.25293H1.77264C0.793868 0.25293 0 1.0468 0 2.02434V18.7782C0 19.5301 0.443778 20.234 1.13656 20.5262C4.94072 22.1238 7.61079 25.886 7.61079 30.2683C7.61079 34.6506 4.94072 38.4129 1.13656 40.0129C0.443778 40.3051 0 41.0053 0 41.7671V55.9741C0 56.9529 0.793868 57.7468 1.77264 57.7468H19.4375C20.4162 57.7468 21.2089 56.9529 21.2089 55.9741V21.998C21.2089 21.3163 20.8304 20.6692 20.2054 20.4004C19.9737 20.3006 19.7185 20.2451 19.4485 20.2451H9.99979C9.02101 20.2451 8.22714 19.4525 8.22714 18.4737V7.35583C8.22714 6.37706 9.02101 5.58319 9.99979 5.58319H46.5116C46.8383 5.58319 47.1588 5.67071 47.4423 5.83097C47.6395 5.94191 47.8417 6.22914 47.965 6.27968C48.1622 6.35857 48.3779 6.22297 48.3779 6.00971V2.02434C48.3779 1.0468 47.584 0.25293 46.6053 0.25293ZM12.353 50.544C12.353 50.3813 12.4849 50.2482 12.6477 50.2482H17.4466C17.6106 50.2482 17.7425 50.3813 17.7425 50.544V51.7484C17.7425 51.9123 17.6106 52.0442 17.4466 52.0442H12.6477C12.4849 52.0442 12.353 51.9123 12.353 51.7484V50.544ZM9.06292 50.2482C9.22687 50.2482 9.35877 50.3813 9.35877 50.544V51.7484C9.35877 51.9123 9.22687 52.0442 9.06292 52.0442H4.26396C4.10124 52.0442 3.96934 51.9123 3.96934 51.7484V50.544C3.96934 50.3813 4.10124 50.2482 4.26396 50.2482H9.06292Z" fill="#D2F902"/>
</svg>