<svg width="93" height="28" viewBox="0 0 93 28" fill="none" xmlns="http://www.w3.org/2000/svg">
<path d="M18.9671 8.89828C17.3386 7.49299 15.4896 6.86307 13.3804 6.86307H13.3434C9.20026 6.86307 6.75824 9.97075 6.75824 13.855V13.892C6.83221 17.8503 9.23724 20.921 13.3434 20.921H13.3804C15.8224 20.921 17.4866 20.1443 18.9671 18.8857L22.6295 23.8807C20.3724 25.9899 17.2647 27.1363 13.3804 27.1363H13.3434C5.01889 27.1363 0.0991211 21.5866 0.0991211 13.8908V13.8538C0.0991211 6.19494 5.02012 0.646484 13.3434 0.646484H13.3804C16.8949 0.646484 20.2244 1.64498 22.6295 3.90208L18.9671 8.89705V8.89828Z" fill="white"/>
<path d="M50.0436 26.6941H43.0147L41.3123 21.884H31.3236L29.6212 26.6941H22.5923L32.7289 1.0918H39.9058L50.0424 26.6941H50.0436ZM36.3186 7.93584L33.4328 16.0385H39.2044L36.3186 7.93584Z" fill="white"/>
<path d="M69.8019 1.0918V7.49205H62.5511V26.6928H55.8919V7.49205H48.6411V1.0918H69.8031H69.8019Z" fill="white"/>
<path d="M88.8178 8.45496C86.8566 6.9757 85.1554 6.56767 82.8613 6.56767H82.8244C80.4563 6.56767 78.9031 7.15938 78.9031 8.34402C78.9031 9.15761 79.3838 9.60139 81.9368 10.1204L86.451 11.0449C91.6309 12.1174 93.0362 15.744 92.9992 19.3324C92.9992 24.3644 88.522 27.1392 82.6394 27.1392H82.6025C77.1267 27.1392 73.1685 25.3999 70.9854 21.8114L76.4611 17.8162C78.2744 20.591 80.3454 21.2567 82.7504 21.2567H82.7874C85.0445 21.2567 86.2649 20.4801 86.2649 19.1475C86.2649 17.815 85.2664 17.2972 83.601 16.8904L78.1622 15.5961C73.8711 14.5606 72.1688 11.8597 72.1688 8.60412C72.1688 3.23935 76.7199 0.649414 83.0832 0.649414H83.1202C86.9305 0.649414 90.1861 1.53697 92.6651 3.49822L88.8178 8.4562V8.45496Z" fill="white"/>
</svg>
