<svg xmlns="http://www.w3.org/2000/svg" width="59" height="58" viewBox="0 0 59 58" fill="none">
  <path d="M56.9143 20.2732C57.6083 19.9811 58.0521 19.2772 58.0521 18.5252V1.77141C58.0521 0.793868 57.2582 0 56.2794 0H50.9258C49.947 0 49.1543 0.793868 49.1543 1.77141V6.99935C49.1654 7.08195 49.1716 7.167 49.1716 7.25329V18.2208C49.1716 19.1995 48.3777 19.9922 47.4002 19.9922H37.7998C36.821 19.9922 36.0272 20.786 36.0272 21.7648V49.6883C36.0272 50.6671 35.2345 51.4609 34.2557 51.4609H24.1006C23.578 51.4609 23.0725 51.3068 22.6164 51.0529C22.5795 51.0319 22.5449 51.0147 22.5104 50.9999C22.3132 50.9124 22.0913 51.0492 22.0913 51.2649L22.095 55.7212C22.095 56.7 22.8876 57.4938 23.8664 57.4938H56.2794C57.2582 57.4938 58.0521 56.7 58.0521 55.7212V41.5141C58.0521 40.7523 57.6083 40.0522 56.9143 39.76C53.1114 38.1599 50.4413 34.4002 50.4413 30.0154C50.4413 25.6306 53.1114 21.8708 56.9143 20.2732ZM44.6919 51.4954C44.6919 51.6594 44.56 51.7913 44.3961 51.7913H39.5983C39.4344 51.7913 39.3025 51.6594 39.3025 51.4954V50.2911C39.3025 50.1284 39.4344 49.9952 39.5983 49.9952H44.3961C44.56 49.9952 44.6919 50.1284 44.6919 50.2911V51.4954ZM52.7798 49.9952C52.9437 49.9952 53.0756 50.1284 53.0756 50.2911V51.4954C53.0756 51.6594 52.9437 51.7913 52.7798 51.7913H47.982C47.8181 51.7913 47.6862 51.6594 47.6862 51.4954V50.2911C47.6862 50.1284 47.8181 49.9952 47.982 49.9952H52.7798Z" fill="#BA8AFF"/>
  <path d="M46.6053 0H1.77264C0.793868 0 0 0.793868 0 1.77141V18.5252C0 19.2772 0.443778 19.9811 1.13656 20.2732C4.94072 21.8708 7.61079 25.6331 7.61079 30.0154C7.61079 34.3977 4.94072 38.1599 1.13656 39.76C0.443778 40.0522 0 40.7523 0 41.5141V55.7212C0 56.7 0.793868 57.4938 1.77264 57.4938H19.4375C20.4162 57.4938 21.2089 56.7 21.2089 55.7212V21.7451C21.2089 21.0634 20.8304 20.4162 20.2054 20.1475C19.9737 20.0476 19.7185 19.9922 19.4485 19.9922H9.99979C9.02101 19.9922 8.22714 19.1995 8.22714 18.2208V7.10291C8.22714 6.12413 9.02101 5.33026 9.99979 5.33026H46.5116C46.8383 5.33026 47.1588 5.41778 47.4423 5.57804C47.6395 5.68898 47.8417 5.97621 47.965 6.02675C48.1622 6.10564 48.3779 5.97004 48.3779 5.75678V1.77141C48.3779 0.793868 47.584 0 46.6053 0ZM12.353 50.2911C12.353 50.1284 12.4849 49.9952 12.6477 49.9952H17.4466C17.6106 49.9952 17.7425 50.1284 17.7425 50.2911V51.4954C17.7425 51.6594 17.6106 51.7913 17.4466 51.7913H12.6477C12.4849 51.7913 12.353 51.6594 12.353 51.4954V50.2911ZM9.06292 49.9952C9.22687 49.9952 9.35877 50.1284 9.35877 50.2911V51.4954C9.35877 51.6594 9.22687 51.7913 9.06292 51.7913H4.26396C4.10124 51.7913 3.96934 51.6594 3.96934 51.4954V50.2911C3.96934 50.1284 4.10124 49.9952 4.26396 49.9952H9.06292Z" fill="#D2F902"/>
</svg>