<svg xmlns="http://www.w3.org/2000/svg" width="34" height="34" viewBox="0 0 34 34" fill="none">
  <path opacity="0.5" d="M2.83337 17.0002C2.83337 10.3219 2.83337 6.98282 4.90803 4.90816C6.98269 2.8335 10.3218 2.8335 17 2.8335C23.6783 2.8335 27.0174 2.8335 29.092 4.90816C31.1667 6.98282 31.1667 10.3219 31.1667 17.0002C31.1667 23.6784 31.1667 27.0175 29.092 29.0922C27.0174 31.1668 23.6783 31.1668 17 31.1668C10.3218 31.1668 6.98269 31.1668 4.90803 29.0922C2.83337 27.0175 2.83337 23.6784 2.83337 17.0002Z" fill="white"/>
  <path d="M23.0208 11.3335C23.0208 10.7467 23.4965 10.271 24.0833 10.271C24.6701 10.271 25.1458 10.7467 25.1458 11.3335V22.6668C25.1458 23.2536 24.6701 23.7293 24.0833 23.7293C23.4965 23.7293 23.0208 23.2536 23.0208 22.6668V11.3335Z" fill="white"/>
  <path d="M9.91663 18.0627C9.32982 18.0627 8.85413 17.587 8.85413 17.0002C8.85413 16.4134 9.32982 15.9377 9.91663 15.9377L17.2682 15.9377L14.832 13.5015C14.4171 13.0865 14.4171 12.4138 14.832 11.9989C15.2469 11.5839 15.9197 11.5839 16.3346 11.9989L20.5846 16.2489C20.7839 16.4481 20.8958 16.7184 20.8958 17.0002C20.8958 17.282 20.7839 17.5522 20.5846 17.7515L16.3346 22.0015C15.9197 22.4164 15.2469 22.4164 14.832 22.0015C14.4171 21.5865 14.4171 20.9138 14.832 20.4989L17.2682 18.0627H9.91663Z" fill="white"/>
</svg>