<svg width="42" height="42" viewBox="0 0 42 42" fill="none" xmlns="http://www.w3.org/2000/svg">
<path opacity="0.5" d="M3.5 21C3.5 14.4003 3.5 11.1005 5.55025 9.05025C7.60051 7 10.9003 7 17.5 7H24.5C31.0997 7 34.3995 7 36.4497 9.05025C38.5 11.1005 38.5 14.4003 38.5 21C38.5 27.5997 38.5 30.8995 36.4497 32.9497C34.3995 35 31.0997 35 24.5 35H17.5C10.9003 35 7.60051 35 5.55025 32.9497C3.5 30.8995 3.5 27.5997 3.5 21Z" fill="white"/>
<path d="M22.3131 17.5C22.3131 16.7751 21.7255 16.1875 21.0006 16.1875C20.2758 16.1875 19.6881 16.7751 19.6881 17.5V18.7271L18.6251 18.1133C17.9974 17.7509 17.1947 17.966 16.8322 18.5938C16.4698 19.2215 16.6849 20.0242 17.3126 20.3867L18.3748 20.9999L17.3122 21.6133C16.6845 21.9758 16.4694 22.7785 16.8318 23.4062C17.1943 24.034 17.997 24.2491 18.6247 23.8867L19.6881 23.2727V24.5C19.6881 25.2249 20.2758 25.8125 21.0006 25.8125C21.7255 25.8125 22.3131 25.2249 22.3131 24.5V23.2737L23.3748 23.8867C24.0026 24.2491 24.8053 24.034 25.1677 23.4062C25.5302 22.7785 25.3151 21.9758 24.6873 21.6133L23.6248 20.9999L24.6869 20.3867C25.3147 20.0242 25.5298 19.2215 25.1673 18.5938C24.8049 17.966 24.0022 17.7509 23.3744 18.1133L22.3131 18.7261V17.5Z" fill="white"/>
<path d="M11.7824 16.1875C12.5072 16.1875 13.0949 16.7751 13.0949 17.5V18.7261L14.1561 18.1133C14.7839 17.7509 15.5866 17.966 15.9491 18.5938C16.3115 19.2215 16.0964 20.0242 15.4686 20.3867L14.4065 20.9999L15.4691 21.6133C16.0968 21.9758 16.3119 22.7785 15.9495 23.4062C15.587 24.034 14.7843 24.2491 14.1566 23.8867L13.0949 23.2737V24.5C13.0949 25.2249 12.5072 25.8125 11.7824 25.8125C11.0575 25.8125 10.4699 25.2249 10.4699 24.5V23.2727L9.40647 23.8867C8.77871 24.2491 7.976 24.034 7.61356 23.4062C7.25112 22.7785 7.46621 21.9758 8.09397 21.6133L9.15651 20.9999L8.09438 20.3867C7.46662 20.0242 7.25153 19.2215 7.61397 18.5938C7.97641 17.966 8.77912 17.7509 9.40688 18.1133L10.4699 18.7271V17.5C10.4699 16.7751 11.0575 16.1875 11.7824 16.1875Z" fill="white"/>
<path d="M31.5318 17.5C31.5318 16.7751 30.9442 16.1875 30.2193 16.1875C29.4945 16.1875 28.9068 16.7751 28.9068 17.5V18.7271L27.8438 18.1133C27.2161 17.7509 26.4134 17.966 26.0509 18.5938C25.6885 19.2215 25.9036 20.0242 26.5313 20.3867L27.5935 20.9999L26.5309 21.6133C25.9032 21.9758 25.6881 22.7785 26.0505 23.4062C26.413 24.034 27.2157 24.2491 27.8434 23.8867L28.9068 23.2727V24.5C28.9068 25.2249 29.4945 25.8125 30.2193 25.8125C30.9442 25.8125 31.5318 25.2249 31.5318 24.5V23.2737L32.5935 23.8867C33.2213 24.2491 34.024 24.034 34.3864 23.4062C34.7489 22.7785 34.5338 21.9758 33.906 21.6133L32.8435 20.9999L33.9056 20.3867C34.5334 20.0242 34.7485 19.2215 34.386 18.5938C34.0236 17.966 33.2209 17.7509 32.5931 18.1133L31.5318 18.7261V17.5Z" fill="white"/>
</svg>
