<svg xmlns="http://www.w3.org/2000/svg" width="24" height="25" viewBox="0 0 24 25" fill="none">
  <path opacity="0.5" d="M22 12.5C22 18.0228 17.5228 22.5 12 22.5C6.47715 22.5 2 18.0228 2 12.5C2 6.97715 6.47715 2.5 12 2.5C17.5228 2.5 22 6.97715 22 12.5Z" fill="#FF3347"/>
  <path d="M8.96967 9.46967C9.26256 9.17678 9.73744 9.17678 10.0303 9.46967L12 11.4394L13.9697 9.46969C14.2626 9.1768 14.7374 9.1768 15.0303 9.46969C15.3232 9.76258 15.3232 10.2375 15.0303 10.5304L13.0607 12.5L15.0303 14.4696C15.3232 14.7625 15.3232 15.2374 15.0303 15.5303C14.7374 15.8232 14.2625 15.8232 13.9696 15.5303L12 13.5607L10.0304 15.5303C9.73746 15.8232 9.26258 15.8232 8.96969 15.5303C8.6768 15.2374 8.6768 14.7626 8.96969 14.4697L10.9394 12.5L8.96967 10.5303C8.67678 10.2374 8.67678 9.76256 8.96967 9.46967Z" fill="#FF3347"/>
</svg>