<svg xmlns="http://www.w3.org/2000/svg" width="35" height="35" viewBox="0 0 35 35" fill="none">
  <g opacity="0.5">
    <path d="M20.3333 4.27832C23.0346 4.27832 24.9537 4.28058 26.4095 4.47631C27.8348 4.66794 28.656 5.0273 29.2556 5.62685C29.8551 6.2264 30.2145 7.04756 30.4061 8.47286C30.6018 9.92872 30.6041 11.8478 30.6041 14.5492C30.6041 15.136 31.0798 15.6117 31.6666 15.6117C32.2534 15.6117 32.7291 15.136 32.7291 14.5492V14.4692C32.7291 11.8657 32.7291 9.80359 32.5121 8.18971C32.2888 6.52877 31.8183 5.18443 30.7582 4.12425C29.698 3.06407 28.3536 2.59357 26.6927 2.37026C25.0788 2.15328 23.0167 2.1533 20.4132 2.15332H20.3333C19.7465 2.15332 19.2708 2.62902 19.2708 3.21582C19.2708 3.80262 19.7465 4.27832 20.3333 4.27832Z" fill="white"/>
    <path d="M14.5867 2.15332H14.6666C15.2534 2.15332 15.7291 2.62902 15.7291 3.21582C15.7291 3.80262 15.2534 4.27832 14.6666 4.27832C11.9653 4.27832 10.0461 4.28058 8.59029 4.47631C7.165 4.66794 6.34383 5.0273 5.74428 5.62685C5.14474 6.2264 4.78537 7.04756 4.59374 8.47286C4.39801 9.92871 4.39575 11.8478 4.39575 14.5492C4.39575 15.136 3.92006 15.6117 3.33325 15.6117C2.74645 15.6117 2.27075 15.136 2.27075 14.5492V14.4692C2.27073 11.8657 2.27071 9.80359 2.48769 8.18971C2.711 6.52877 3.1815 5.18443 4.24168 4.12425C5.30186 3.06407 6.64621 2.59357 8.30714 2.37026C9.92102 2.15328 11.9832 2.1533 14.5867 2.15332Z" fill="white"/>
    <path d="M31.6666 19.1533C32.2534 19.1533 32.7291 19.629 32.7291 20.2158V20.2957C32.7291 22.8992 32.7291 24.9614 32.5121 26.5753C32.2888 28.2362 31.8183 29.5805 30.7582 30.6407C29.698 31.7009 28.3536 32.1714 26.6927 32.3947C25.0788 32.6117 23.0167 32.6117 20.4132 32.6117H20.3333C19.7465 32.6117 19.2708 32.136 19.2708 31.5492C19.2708 30.9624 19.7465 30.4867 20.3333 30.4867C23.0346 30.4867 24.9537 30.4844 26.4095 30.2887C27.8348 30.097 28.656 29.7377 29.2556 29.1381C29.8551 28.5386 30.2145 27.7174 30.4061 26.2921C30.6018 24.8363 30.6041 22.9172 30.6041 20.2158C30.6041 19.629 31.0798 19.1533 31.6666 19.1533Z" fill="white"/>
    <path d="M4.39575 20.2158C4.39575 19.629 3.92006 19.1533 3.33325 19.1533C2.74645 19.1533 2.27075 19.629 2.27075 20.2158V20.2957C2.27073 22.8992 2.27071 24.9614 2.48769 26.5753C2.711 28.2362 3.1815 29.5805 4.24168 30.6407C5.30186 31.7009 6.64621 32.1714 8.30714 32.3947C9.92103 32.6117 11.9832 32.6117 14.5867 32.6117H14.6666C15.2534 32.6117 15.7291 32.136 15.7291 31.5492C15.7291 30.9624 15.2534 30.4867 14.6666 30.4867C11.9653 30.4867 10.0461 30.4844 8.59029 30.2887C7.165 30.097 6.34383 29.7377 5.74428 29.1381C5.14474 28.5386 4.78537 27.7174 4.59374 26.2921C4.39801 24.8363 4.39575 22.9172 4.39575 20.2158Z" fill="white"/>
  </g>
  <path d="M8.33013 8.2127C7.58325 8.95958 7.58325 10.1617 7.58325 12.5658C7.58325 14.1686 7.58325 14.97 8.08117 15.4679C8.57909 15.9658 9.38048 15.9658 10.9833 15.9658H12.6833C14.286 15.9658 15.0874 15.9658 15.5853 15.4679C16.0833 14.97 16.0833 14.1686 16.0833 12.5658V10.8658C16.0833 9.26305 16.0833 8.46166 15.5853 7.96374C15.0874 7.46582 14.286 7.46582 12.6833 7.46582C10.2791 7.46582 9.07701 7.46582 8.33013 8.2127Z" fill="white"/>
  <path d="M8.33013 26.5523C7.58325 25.8054 7.58325 24.6033 7.58325 22.1992C7.58325 20.5964 7.58325 19.795 8.08117 19.2971C8.57909 18.7992 9.38048 18.7992 10.9833 18.7992H12.6833C14.286 18.7992 15.0874 18.7992 15.5853 19.2971C16.0833 19.795 16.0833 20.5964 16.0833 22.1992V23.8992C16.0833 25.5019 16.0833 26.3033 15.5853 26.8012C15.0874 27.2992 14.286 27.2992 12.6833 27.2992C10.2791 27.2992 9.077 27.2992 8.33013 26.5523Z" fill="white"/>
  <path d="M18.9166 10.8658C18.9166 9.26305 18.9166 8.46166 19.4145 7.96374C19.9124 7.46582 20.7138 7.46582 22.3166 7.46582C24.7207 7.46582 25.9228 7.46582 26.6697 8.2127C27.4166 8.95958 27.4166 10.1617 27.4166 12.5658C27.4166 14.1686 27.4166 14.97 26.9187 15.4679C26.4207 15.9658 25.6194 15.9658 24.0166 15.9658H22.3166C20.7138 15.9658 19.9124 15.9658 19.4145 15.4679C18.9166 14.97 18.9166 14.1686 18.9166 12.5658V10.8658Z" fill="white"/>
  <path d="M19.4145 26.8012C18.9166 26.3033 18.9166 25.5019 18.9166 23.8992V22.1992C18.9166 20.5964 18.9166 19.795 19.4145 19.2971C19.9124 18.7992 20.7138 18.7992 22.3166 18.7992H24.0166C25.6194 18.7992 26.4207 18.7992 26.9187 19.2971C27.4166 19.795 27.4166 20.5964 27.4166 22.1992C27.4166 24.6033 27.4166 25.8054 26.6697 26.5523C25.9228 27.2992 24.7208 27.2992 22.3166 27.2992C20.7139 27.2992 19.9124 27.2992 19.4145 26.8012Z" fill="white"/>
</svg>