<svg xmlns="http://www.w3.org/2000/svg" width="44" height="44" viewBox="0 0 44 44" fill="none">
  <path fill-rule="evenodd" clip-rule="evenodd" d="M25.6916 31.1668L25.6809 34.8388C25.6784 35.7008 25.6772 36.1317 25.4082 36.3993C25.1392 36.6668 24.7072 36.6668 23.8431 36.6668H18.324C11.3929 36.6668 7.9273 36.6668 5.77406 34.5189C4.29151 33.0401 3.82973 30.9406 3.6859 27.5195C3.65737 26.841 3.64311 26.5018 3.7698 26.2755C3.89649 26.0491 4.40228 25.7667 5.41382 25.2018C6.53724 24.5744 7.29663 23.3758 7.29663 22.0002C7.29663 20.6246 6.53724 19.4259 5.41382 18.7985C4.40227 18.2336 3.89649 17.9512 3.7698 17.7249C3.64311 17.4986 3.65737 17.1593 3.6859 16.4809C3.82973 13.0597 4.29151 10.9603 5.77406 9.48138C7.9273 7.3335 11.3929 7.3335 18.324 7.3335H24.7593C25.2658 7.3335 25.6768 7.74228 25.6783 8.24751L25.6916 12.8335C25.6916 13.846 26.5145 14.6668 27.5295 14.6668L27.5295 18.3335C26.5145 18.3335 25.6916 19.1543 25.6916 20.1668V23.8335C25.6916 24.846 26.5145 25.6668 27.5295 25.6668V29.3335C26.5145 29.3335 25.6916 30.1543 25.6916 31.1668Z" fill="white"/>
  <path opacity="0.5" d="M27.5303 29.3328C28.5453 29.3328 29.3682 30.1537 29.3682 31.1662V34.7897C29.3682 35.6725 29.3682 36.114 29.6513 36.3846C29.9343 36.6553 30.3674 36.6369 31.2336 36.6003C34.649 36.4556 36.7473 35.9937 38.2264 34.5183C39.7089 33.0394 40.1707 30.94 40.3145 27.5188C40.3431 26.8404 40.3573 26.5011 40.2306 26.2748C40.1039 26.0485 39.5982 25.766 38.5866 25.2011C37.4632 24.5738 36.7038 23.3751 36.7038 21.9995C36.7038 20.6239 37.4632 19.4252 38.5866 18.7979C39.5982 18.233 40.1039 17.9505 40.2306 17.7242C40.3573 17.4979 40.3431 17.1587 40.3145 16.4802C40.1707 13.0591 39.7089 10.9596 38.2264 9.48073C36.6172 7.87558 34.2752 7.46998 30.3015 7.3675C29.7889 7.35427 29.3682 7.76767 29.3682 8.27917V12.8328C29.3682 13.8454 28.5453 14.6662 27.5303 14.6662L27.5303 18.3328C28.5453 18.3328 29.3682 19.1537 29.3682 20.1662V23.8328C29.3682 24.8454 28.5453 25.6662 27.5303 25.6662V29.3328Z" fill="white"/>
</svg>