<svg xmlns="http://www.w3.org/2000/svg" width="45" height="44" viewBox="0 0 45 44" fill="none">
  <path opacity="0.5" d="M13.7825 3.66699H31.2175C33.3421 3.66699 34.4044 3.66699 35.2611 3.9651C36.8858 4.53041 38.1613 5.8435 38.7104 7.51601C39 8.39799 39 9.49159 39 11.6788V37.353C39 38.9264 37.1942 39.7613 36.0518 38.7159C35.3807 38.1018 34.3693 38.1018 33.6982 38.7159L32.8125 39.5264C31.6363 40.6027 29.8637 40.6027 28.6875 39.5264C27.5113 38.4501 25.7387 38.4501 24.5625 39.5264C23.3863 40.6027 21.6137 40.6027 20.4375 39.5264C19.2613 38.4501 17.4887 38.4501 16.3125 39.5264C15.1363 40.6027 13.3637 40.6027 12.1875 39.5264L11.3018 38.7159C10.6307 38.1018 9.61932 38.1018 8.94818 38.7159C7.80583 39.7613 6 38.9264 6 37.353V11.6788C6 9.49159 6 8.39799 6.28958 7.51601C6.83871 5.8435 8.11423 4.53041 9.73888 3.9651C10.5956 3.66699 11.6579 3.66699 13.7825 3.66699Z" fill="white"/>
  <path d="M28.109 15.5823C28.6148 15.0158 28.5656 14.1466 27.9991 13.6409C27.4326 13.1351 26.5634 13.1843 26.0577 13.7507L20.5357 19.9353L18.9423 18.1507C18.4366 17.5843 17.5674 17.5351 17.0009 18.0409C16.4344 18.5466 16.3852 19.4158 16.891 19.9823L19.51 22.9156C19.7709 23.2078 20.144 23.3749 20.5357 23.3749C20.9274 23.3749 21.3005 23.2078 21.5614 22.9156L28.109 15.5823Z" fill="white"/>
  <path d="M14.25 27.0415C13.4906 27.0415 12.875 27.6571 12.875 28.4165C12.875 29.1759 13.4906 29.7915 14.25 29.7915H30.75C31.5094 29.7915 32.125 29.1759 32.125 28.4165C32.125 27.6571 31.5094 27.0415 30.75 27.0415H14.25Z" fill="white"/>
</svg>