<svg xmlns="http://www.w3.org/2000/svg" width="21" height="21" viewBox="0 0 21 21" fill="none">
  <path fill-rule="evenodd" clip-rule="evenodd" d="M13.5566 6.3335C13.5566 5.98832 13.8365 5.7085 14.1816 5.7085H18.8334C19.1786 5.7085 19.4584 5.98832 19.4584 6.3335V10.955C19.4584 11.3002 19.1786 11.58 18.8334 11.58C18.4883 11.58 18.2084 11.3002 18.2084 10.955V6.9585H14.1816C13.8365 6.9585 13.5566 6.67867 13.5566 6.3335Z" fill="#A4F4BC"/>
  <path opacity="0.5" d="M17.3229 6.9585L12.2431 12.0024C11.8149 12.428 11.5373 12.702 11.3062 12.8774C11.0895 13.0418 10.9882 13.0602 10.9211 13.0601C10.854 13.0601 10.7526 13.0417 10.536 12.8773C10.3049 12.7019 10.0274 12.4278 9.59928 12.0021L9.37072 11.7749C8.97967 11.386 8.64263 11.0508 8.33654 10.8185C8.00844 10.5695 7.64386 10.3811 7.19504 10.3813C6.74621 10.3815 6.38177 10.5701 6.05385 10.8193C5.74793 11.0518 5.41113 11.3873 5.02036 11.7765L1.72573 15.0573C1.48114 15.3009 1.48032 15.6966 1.72388 15.9412C1.96745 16.1858 2.36317 16.1866 2.60776 15.943L5.87332 12.6911C6.30147 12.2648 6.57906 11.9902 6.81024 11.8145C7.02698 11.6498 7.12835 11.6313 7.19549 11.6313C7.26263 11.6313 7.36402 11.6496 7.58088 11.8142C7.81218 11.9898 8.08997 12.2641 8.51844 12.6902L8.74697 12.9174C9.13767 13.306 9.47443 13.6409 9.78028 13.873C10.1081 14.1218 10.4724 14.3101 10.9209 14.3101C11.3694 14.3102 11.7338 14.122 12.0617 13.8733C12.3676 13.6412 12.7044 13.3064 13.0952 12.9179L18.2085 7.84064V6.9585H17.3229Z" fill="#A4F4BC"/>
</svg>